<?xml version="1.0"?>
<svg xmlns="http://www.w3.org/2000/svg" xmlnsXlink="http://www.w3.org/1999/xlink" xmlnsSvgjs="http://svgjs.com/svgjs" version="1.1" width="512" height="512" x="0" y="0" viewBox="0 0 24 24" style="enable-background:new 0 0 512 512" xmlSpace="preserve"><g><g xmlns="http://www.w3.org/2000/svg" id="_01_align_center" data-name="01 align center"><path d="M13,2V9H2V3A1,1,0,0,1,3,2H13m2-2H3A3,3,0,0,0,0,3v8H15V0Z" fill="#edc531" data-original="#000000"/><path d="M21,2a1,1,0,0,1,1,1V9H19V2h2m0-2H17V11h7V3a3,3,0,0,0-3-3Z" fill="#edc531" data-original="#000000"/><path d="M5,15v7H3a1,1,0,0,1-1-1V15H5m2-2H0v8a3,3,0,0,0,3,3H7V13Z" fill="#edc531" data-original="#000000"/><path d="M22,15v6a1,1,0,0,1-1,1H11V15H22m2-2H9V24H21a3,3,0,0,0,3-3V13Z" fill="#edc531" data-original="#000000"/></g></g></svg>
