<?xml version="1.0"?>
<svg xmlns="http://www.w3.org/2000/svg" xmlnsXlink="http://www.w3.org/1999/xlink" xmlnsSvgjs="http://svgjs.com/svgjs" version="1.1" width="512" height="512" x="0" y="0" viewBox="0 0 24 24" style="enable-background:new 0 0 512 512" xmlSpace="preserve"><g><path xmlns="http://www.w3.org/2000/svg" d="M21.962,12.875A10.03,10.03,0,1,1,19.122,5H16a1,1,0,0,0-1,1h0a1,1,0,0,0,1,1h4.143A1.858,1.858,0,0,0,22,5.143V1a1,1,0,0,0-1-1h0a1,1,0,0,0-1,1V3.078A11.985,11.985,0,1,0,23.95,13.1a1.007,1.007,0,0,0-1-1.1h0A.982.982,0,0,0,21.962,12.875Z" fill="#edc531" data-original="#000000"/></g></svg>
